<svg style="display:none" xmlns="http://www.w3.org/2000/svg" xmlns:xlink="http://www.w3.org/1999/xlink" version="1.1">
	<symbol id="white-cat" viewBox="0 0 104 101" fill="none" xmlns="http://www.w3.org/2000/svg">
        <path d="M95.4682 5.03716C92.3295 8.96167 91.3441 13.6129 90.7236 18.4096C90.2857 21.7527 90.1762 25.1685 89.9937 28.5479C89.8112 31.4913 88.3149 32.9448 85.8331 32.4361C80.5777 31.4186 75.3587 30.3285 70.1032 29.4564C67.0375 28.9476 63.9353 28.4389 60.8696 28.4752C53.2054 28.5116 45.5777 28.6933 37.9134 29.0566C31.928 29.3473 26.0886 30.3648 20.5777 32.9085C19.9572 33.1992 18.8623 32.9448 18.2784 32.5451C16.8185 31.6003 16.5266 30.0378 16.6725 28.3662C16.782 26.731 16.855 25.0958 16.855 23.4606C16.782 15.9749 14.3368 9.57942 8.1689 4.92814C6.08861 3.32927 3.75284 2.3118 0.869629 1.87574C0.979118 34.9071 0.942622 67.6477 5.57766 100.061L103.132 100.061L103.132 0.0588379C99.8842 0.894614 97.1835 2.85687 95.4682 5.03716ZM26.5266 49.406C26.4901 44.8274 30.2492 40.9755 34.7382 40.9028C39.3003 40.8665 43.1689 44.7547 43.1324 49.406C43.0959 53.9846 39.3368 57.8001 34.8112 57.8001C30.3587 57.8001 26.5631 53.9482 26.5266 49.406ZM73.3879 72.408C72.1105 76.8412 68.2419 79.8573 63.0959 80.366C62.512 80.4387 61.8915 80.475 61.1616 80.5114C60.1397 85.9984 57.074 89.4505 51.1981 89.4869C45.7966 89.5232 43.1324 86.2164 42.1835 81.2381C40.8331 81.1654 39.6288 81.2018 38.4244 81.0564C33.5704 80.5114 30.0667 77.2409 29.5558 72.844C29.4828 72.1899 29.3733 71.3905 29.6652 70.8818C30.1032 70.1913 30.8696 69.3556 31.5266 69.3192C32.1835 69.2829 32.9134 70.1913 33.5704 70.7001C33.7163 70.8091 33.7163 71.1361 33.7528 71.3905C34.5923 75.3877 36.4901 76.9139 40.6142 76.7685C43.2419 76.6595 45.5777 75.7147 47.5485 73.8978C49.6652 71.8992 49.5193 70.4094 47.3295 68.4835C46.0886 67.3933 44.8477 66.1578 43.9353 64.777C42.512 62.5967 43.2419 60.7071 45.7966 60.053C48.0594 59.508 50.4682 59.2172 52.8039 59.2172C54.7747 59.2172 56.782 59.726 58.7163 60.1257C61.2346 60.6708 62.293 63.2508 60.6871 65.322C59.5193 66.8482 58.0229 68.1201 56.5996 69.4282C54.5558 71.2815 54.5923 72.6623 56.782 74.2612C59.7382 76.4052 62.8404 76.5505 66.0521 74.988C67.7309 74.1522 68.6798 72.7714 69.2638 71.0271C69.8477 69.2466 71.0886 68.5561 72.4025 69.1739C73.8988 69.828 73.7528 71.0998 73.3879 72.408ZM71.0156 57.8001C66.5266 57.8364 62.6944 54.0209 62.6579 49.4423C62.585 44.791 66.4536 40.8665 71.0156 40.9028C75.5047 40.9392 79.3003 44.7547 79.3003 49.3333C79.3003 53.9119 75.5047 57.8001 71.0156 57.8001Z" fill="white"/>
	</symbol>
	<symbol id="glasses-cat" viewBox="0 0 234 116" fill="none" xmlns="http://www.w3.org/2000/svg">
		<path d="M2.59516 42.1945C3.24394 42.2799 3.89273 42.2799 4.54151 42.2372C10.5103 41.7247 16.4359 41.255 22.4047 40.6998C24.7404 40.4862 27.0327 40.0592 29.5414 39.6748L33.9531 103.351C34.0396 105.273 34.1694 107.237 34.2559 109.159C34.2992 110.099 34.3856 110.996 34.5154 111.892C34.8614 113.942 36.2023 115.181 38.1054 115.779C39.9652 116.334 41.6088 115.821 43.0794 114.498C45.1555 112.618 47.0154 110.568 48.7022 108.305C50.6486 105.657 52.5949 103.095 54.671 100.532C55.19 99.849 55.7523 99.1657 56.3146 98.4824C57.7419 96.7314 58.9963 94.7669 61.0291 93.4857C61.8942 93.6992 62.716 93.9127 63.5378 94.1263C68.4685 95.4929 73.4858 96.5606 78.5463 97.2866C79.6709 97.4574 80.7955 97.5855 81.9633 97.7137C90.4407 98.6532 98.9182 98.824 107.439 98.9522C116.738 99.0803 126.037 99.0376 135.293 97.9699C144.593 96.9022 153.892 95.621 162.888 92.8878C170.544 90.5816 178.243 88.489 185.293 84.6453C185.466 84.5599 185.726 84.5599 185.942 84.5172C186.158 84.6453 186.461 84.7734 186.634 84.987C188.494 87.0796 190.354 89.1296 192.214 91.2222C195.717 95.194 199.48 98.9522 203.675 102.198C205.189 103.394 206.876 104.419 208.606 105.273C211.72 106.81 215.44 104.931 215.916 101.6C216.219 99.2938 216.305 96.9022 216.262 94.5961C216.175 91.3076 215.829 88.0619 215.613 84.8162C215.483 82.8089 215.397 80.8017 215.267 78.7945L215.267 78.709L213.018 30.4501C213.018 30.3647 213.018 30.322 213.018 30.2366C213.71 30.1512 214.186 30.0657 214.662 30.023C219.203 29.3397 223.788 28.7418 228.329 27.9731C229.757 27.7596 231.141 27.2898 232.438 26.7346C233.649 26.2648 234.168 25.0263 233.952 23.9586C233.693 22.7628 232.655 21.9087 231.271 21.9087C230.622 21.9087 229.973 22.0795 229.367 22.2077C226.556 22.7628 223.745 23.4462 220.89 23.9159C218.252 24.343 215.57 24.8128 212.672 24.4284L212.629 23.0618L212.629 20.8837C213.278 20.7129 213.926 20.5421 214.532 20.4567C216.175 20.2431 217.819 20.115 219.463 19.8588C220.587 19.6879 221.755 19.4744 222.836 19.09C224.047 18.663 224.61 17.5099 224.393 16.3568C224.22 15.2037 223.269 14.3069 222.015 14.2641C220.933 14.2214 219.852 14.3069 218.771 14.435C217.343 14.6058 215.916 14.862 214.489 15.0329C213.797 15.1183 213.105 15.0329 212.283 15.0329C212.239 14.5204 212.196 14.0079 212.153 13.4954L211.98 9.65179L211.547 0.128126L201.297 0.128125C201.426 4.48424 201.513 8.84035 201.599 13.1965C201.599 13.8798 201.513 14.5631 201.47 15.5026C200.129 15.5026 198.918 15.4599 197.707 15.5026C195.89 15.5881 195.025 16.3568 194.895 17.8515C194.809 19.2609 195.544 20.2858 197.015 20.6275C197.793 20.7983 198.572 20.7983 199.394 20.841C200.172 20.8837 200.951 20.9264 201.902 20.9691L201.902 23.617C200.042 23.9159 198.399 23.3607 196.755 22.9764C195.285 22.6347 193.814 22.1649 192.387 21.8233C191.824 21.6952 191.262 21.567 190.7 21.567C189.575 21.567 188.797 22.2504 188.407 23.2326C188.018 24.2576 188.148 25.2826 189.013 25.9659C189.662 26.4784 190.484 26.9054 191.262 27.0763C194.333 27.8023 197.447 28.4429 200.518 29.1262C200.994 29.2116 201.47 29.3397 202.162 29.4678C203.027 46.2517 203.935 63.0356 204.8 80.1184C204.973 83.3214 205.146 86.5244 205.319 89.7275C204.368 88.8306 203.762 88.3181 203.2 87.7202C201.21 85.5422 199.22 83.3641 197.231 81.1433C195.587 79.3069 193.9 77.4705 192.214 75.6341C191.781 75.1644 191.349 74.6946 190.873 74.2248C188.494 72.0467 186.634 71.7478 183.866 73.4134C176.037 78.1966 167.343 80.7163 158.65 83.236C157.568 83.5349 156.444 83.8339 155.19 84.1328C154.973 83.1079 154.844 82.1683 154.541 81.3142C153.719 78.8799 152.897 76.4456 151.946 74.0967C151.6 73.2852 150.908 72.5592 150.259 71.9186C148.01 69.8687 144.895 70.253 143.122 72.6873C142.084 74.1394 141.522 75.7623 141.565 77.4705C141.652 79.6486 141.911 81.8694 142.171 84.0474C142.257 84.7307 142.387 85.414 142.56 86.2682C138.71 87.2077 134.947 87.4213 130.882 87.8483C130.882 86.738 130.882 85.9265 130.882 85.0724C130.925 81.9121 130.752 78.7945 129.844 75.7623C129.281 73.9259 128.546 72.1322 127.638 70.4666C127.119 69.4843 126.21 68.6729 125.345 67.9469C123.788 66.7084 121.669 66.6657 120.155 67.9042C119.16 68.6729 118.252 69.6979 117.69 70.7655C115.354 75.1216 114.792 79.8194 115.397 84.6453C115.527 85.7557 115.7 86.8661 115.873 87.9765C114.273 88.4889 105.752 88.5744 102.811 88.0619C102.854 87.5494 102.811 86.9942 102.897 86.4817C103.33 83.5349 103.892 80.5881 103.2 77.5987C103.027 76.7872 102.811 75.8904 102.465 75.1644C101.211 72.5165 98.3559 71.7051 96.0203 73.4988C95.0255 74.2675 94.1605 75.2925 93.5117 76.3601C91.7816 79.1788 91.3058 82.3391 91.1328 85.5849C91.0895 86.2682 91.0463 86.9515 90.9598 87.9338C88.5376 87.7202 86.2885 87.5067 83.9961 87.2931C76.9893 86.6525 70.1986 85.0297 63.4945 83.1079C61.4184 82.51 59.4288 82.4673 57.3527 83.0224C55.8388 83.4495 54.5845 84.2609 53.633 85.414C50.8648 88.7879 48.1399 92.1617 45.415 95.5783C45.1987 95.8345 44.9825 96.0908 44.6797 96.3897C43.9877 94.4679 40.2247 40.0592 40.5275 36.2583C41.7818 35.7885 43.2091 35.3187 44.55 34.7208C47.3614 33.525 50.216 32.2865 53.0274 31.0053C53.806 30.6636 54.498 30.1511 55.1468 29.596C56.1849 28.6991 56.4011 27.119 55.7091 26.1367C54.9738 25.069 53.5465 24.6846 52.2489 25.3253C50.6486 26.094 49.0915 27.0335 47.4479 27.7595C45.1123 28.7845 42.6901 29.7241 40.0085 30.7918C39.8787 29.2116 39.7922 27.9731 39.7057 26.6065C40.787 26.4356 41.6521 26.3075 42.4739 26.1794C43.4687 26.0086 44.4635 25.8377 45.415 25.5388C47.0154 24.9836 47.6641 23.7878 47.3181 22.4212C47.0154 21.14 45.7178 20.3712 44.1174 20.4994C43.5552 20.5421 42.9929 20.7556 42.4306 20.841C41.6088 20.9264 40.7438 20.9691 39.6192 21.0545C39.4029 13.9652 39.1867 7.13206 39.0137 -1.79067e-05L26.8165 -1.8973e-05L27.4653 9.48095L28.3303 21.866C27.3355 21.866 26.4272 21.866 25.5189 21.866C22.5778 21.7806 19.5933 21.6952 16.6522 21.6097C15.6574 21.567 14.6193 21.3962 13.6245 21.4389C12.4134 21.5243 11.4619 22.5066 11.2889 23.617C11.1159 24.7701 11.6782 25.8804 12.8892 26.3929C13.4082 26.6065 14.0138 26.7346 14.5761 26.7773C18.5985 26.9908 22.621 27.1616 26.6435 27.3325C27.2923 27.3752 27.8978 27.3325 28.6763 27.3325L29.1521 33.9094C28.8494 33.9948 28.6331 34.1229 28.3736 34.1656C20.4151 35.4895 12.4134 36.4718 4.32525 36.6853C3.76297 36.6853 3.15744 36.6853 2.59516 36.728C0.951565 36.9416 1.23469e-05 37.9238 1.22199e-05 39.3759C0.0432645 40.9987 0.994817 42.0237 2.59516 42.1945Z" fill="black"/>
		<path d="M39.4893 21.268C40.6571 21.1826 41.4789 21.1826 42.3007 21.0545C42.863 20.9691 43.4253 20.7982 43.9876 20.7128C45.6312 20.542 46.8855 21.3107 47.1882 22.6346C47.5343 24.0013 46.8422 25.1971 45.2851 25.7523C44.3336 26.0939 43.3388 26.222 42.344 26.3929C41.5222 26.5637 40.6571 26.6491 39.5758 26.8199C39.6623 28.2293 39.7488 29.4251 39.8786 31.0052C42.5602 29.8948 44.9824 28.998 47.318 27.973C48.9616 27.247 50.4754 26.3074 52.119 25.5387C53.4166 24.8981 54.8439 25.2825 55.5792 26.3502C56.2712 27.3751 56.055 28.9126 55.0169 29.8094C54.3681 30.3646 53.6328 30.8771 52.8976 31.2188C50.0861 32.5 47.2748 33.7385 44.4201 34.9343C43.036 35.5322 41.6519 36.0019 40.3976 36.4717C40.0949 40.2726 43.9011 94.6387 44.5498 96.6032C44.8094 96.3043 45.0689 96.048 45.2851 95.7918C48.01 92.4179 50.7349 89.0014 53.5031 85.6275C54.4546 84.4317 55.709 83.6203 57.2228 83.2359C59.2989 82.6807 61.2885 82.7234 63.3646 83.3213C70.0688 85.2859 76.8594 86.9087 83.8663 87.5066C86.1154 87.7202 88.4078 87.891 90.8299 88.1472C90.9164 87.165 91.0029 86.4817 91.0029 85.7983C91.1759 82.5526 91.6084 79.3923 93.3818 76.5736C94.0306 75.5059 94.8956 74.481 95.8904 73.7123C98.2261 71.9186 101.124 72.73 102.335 75.3778C102.681 76.1466 102.854 77.0007 103.07 77.8121C103.762 80.8016 103.2 83.7484 102.768 86.6952C102.681 87.2077 102.724 87.7629 102.681 88.2753C105.665 88.7878 114.143 88.7024 115.743 88.1899C115.57 87.0796 115.397 85.9692 115.267 84.8588C114.662 79.9902 115.224 75.3351 117.56 70.979C118.122 69.8686 119.074 68.8864 120.025 68.1176C121.582 66.8791 123.658 66.9218 125.216 68.1603C126.081 68.8864 126.989 69.6978 127.508 70.6801C128.416 72.3456 129.152 74.1393 129.714 75.9757C130.622 79.0079 130.795 82.1255 130.752 85.2859C130.752 86.14 130.752 86.9514 130.752 88.0618C134.774 87.6347 138.537 87.3785 142.43 86.4817C142.257 85.5848 142.127 84.9442 142.041 84.2609C141.824 82.0828 141.522 79.9048 141.435 77.684C141.392 75.933 141.954 74.3102 142.992 72.9008C144.766 70.4238 147.88 70.0822 150.129 72.1321C150.821 72.73 151.513 73.4987 151.816 74.3102C152.767 76.659 153.589 79.0933 154.411 81.5276C154.714 82.3818 154.8 83.3213 155.06 84.3463C156.314 84.0047 157.439 83.7484 158.52 83.4495C167.214 80.9297 175.907 78.41 183.736 73.6268C186.504 71.9186 188.364 72.2602 190.743 74.4383C191.219 74.8653 191.651 75.3351 192.084 75.8476C193.771 77.684 195.414 79.5204 197.101 81.3568C199.091 83.5349 201.08 85.7129 203.07 87.9337C203.632 88.5316 204.281 89.0868 205.189 89.9409C205.016 86.7379 204.843 83.5349 204.67 80.3318C203.762 63.249 202.897 46.4652 202.032 29.6813C201.34 29.5532 200.864 29.4251 200.388 29.3397C197.317 28.6563 194.203 28.0157 191.132 27.2897C190.31 27.0762 189.532 26.6918 188.883 26.1793C188.018 25.496 187.845 24.4711 188.278 23.4461C188.667 22.4638 189.445 21.8232 190.57 21.7805C191.132 21.7805 191.738 21.8659 192.257 22.0368C193.727 22.4211 195.155 22.8909 196.625 23.1898C198.269 23.5315 199.956 24.0867 201.772 23.8305L201.772 21.1826C200.821 21.1399 200.042 21.0972 199.264 21.0545C198.485 21.0118 197.663 21.0118 196.885 20.841C195.414 20.4993 194.679 19.4316 194.765 18.065C194.895 16.5703 195.76 15.8015 197.577 15.7161C198.788 15.6734 199.999 15.7161 201.34 15.7161C201.383 14.7766 201.47 14.0933 201.47 13.4099C201.383 9.05383 201.253 4.69771 201.167 0.341591L38.754 0.341577C39.1001 7.30282 39.3163 14.1787 39.4893 21.268ZM116.046 35.3613C118.252 32.3291 120.631 29.3824 122.966 26.3929C123.053 26.3075 123.226 26.2647 123.572 26.0939C124.048 26.3502 124.74 26.5637 125.216 27.0335C127.854 29.724 130.449 32.5 133.434 35.6176C133.52 36.8988 132.439 37.7529 131.055 38.3508C128.719 39.3758 126.21 39.7175 123.702 39.8456C122.404 39.931 121.107 39.8883 119.809 39.8883C118.641 39.8456 117.517 39.5893 116.652 38.7779C115.441 37.6675 115.138 36.6426 116.046 35.3613ZM60.683 29.2115C66.9113 18.7056 79.6275 13.7516 91.3922 16.9119C98.9181 18.9191 104.627 23.3607 108.347 30.1511C110.12 33.3541 110.856 36.9415 111.332 40.6143C114.575 42.7924 118.036 43.433 121.712 43.433C124.956 43.433 128.2 43.6892 131.357 42.7497C133.433 42.1091 134.645 40.9987 134.861 38.7352C136.158 27.1616 145.544 18.1504 156.876 16.3994C167.776 14.7339 176.859 18.1504 183.563 26.7772C189.705 34.7207 190.31 45.3548 184.947 54.2379C177.291 66.9218 160.726 70.1249 149.004 64.0178C142.473 60.6012 137.888 55.5618 135.769 48.5151C135.639 48.088 135.337 47.661 135.12 47.1912C126.902 49.8817 118.857 49.4547 110.769 46.7641C110.51 47.4047 110.25 48.0026 110.077 48.6005C106.963 59.4908 96.0202 67.0072 84.7746 67.05C75.6051 67.05 68.1224 63.6334 62.4563 56.544C56.401 48.9422 55.7955 37.5394 60.683 29.2115Z" fill="white"/>
		<path d="M62.4562 56.544C68.1223 63.6334 75.6049 67.0926 84.7744 67.0499C96.02 67.0499 106.963 59.4908 110.077 48.6005C110.25 48.0026 110.51 47.4474 110.769 46.7641C118.901 49.4546 126.946 49.8817 135.12 47.1912C135.336 47.6609 135.639 48.0453 135.769 48.5151C137.888 55.6045 142.473 60.6012 149.004 64.0177C160.726 70.1249 177.291 66.9218 184.947 54.2378C190.31 45.3548 189.705 34.678 183.563 26.7772C176.859 18.1504 167.776 14.6911 156.876 16.3994C145.544 18.1504 136.158 27.1616 134.861 38.7352C134.601 40.9987 133.433 42.109 131.357 42.7496C128.157 43.6892 124.956 43.433 121.712 43.433C118.036 43.433 114.532 42.7496 111.331 40.6143C110.899 36.8988 110.12 33.3541 108.347 30.1511C104.627 23.3606 98.918 18.9191 91.392 16.9119C79.6274 13.7943 66.9112 18.7056 60.6828 29.2115C55.7953 37.5394 56.4009 48.9422 62.4562 56.544ZM140.224 39.9737C141.089 31.5177 145.933 25.9231 153.762 22.7201C156.271 21.6951 158.866 21.268 161.591 21.2253C169.982 21.567 176.642 24.8981 180.795 32.2437C185.379 40.3581 183.26 49.8817 177.205 55.5618C170.328 61.9678 162.326 63.3344 153.589 60.3022C144.895 57.27 139.316 48.6432 140.224 39.9737ZM64.3161 34.0374C67.1707 27.1616 72.7503 23.2325 80.0167 21.6524C80.7952 21.4815 81.5738 21.3534 82.3523 21.3107C83.0011 21.268 83.6499 21.3107 84.2987 21.3107C92.9924 21.268 100.821 26.3074 104.151 33.6958C109.731 46.2089 100.864 59.1918 88.7537 61.3272C83.2173 62.3095 77.9838 61.6689 73.0963 58.8502C64.1863 53.768 60.2936 43.6038 64.3161 34.0374Z" fill="black"/>
		<path d="M116.046 35.3613C118.252 32.3291 120.631 29.3823 122.966 26.3929C123.053 26.3074 123.226 26.2647 123.572 26.0939C124.048 26.3502 124.74 26.5637 125.215 27.0335C127.854 29.724 130.449 32.5 133.433 35.6176C133.52 36.8988 132.439 37.7529 131.055 38.3508C128.719 39.3758 126.21 39.7174 123.702 39.8456C122.404 39.931 121.106 39.8883 119.809 39.8883C118.641 39.8456 117.517 39.5893 116.651 38.7779C115.44 37.6675 115.138 36.6425 116.046 35.3613Z" fill="black"/>
		<path d="M73.0964 58.8929C77.9839 61.7116 83.2175 62.3522 88.7538 61.37C100.821 59.2346 109.731 46.2517 104.152 33.7385C100.821 26.3075 92.9925 21.3108 84.2988 21.3535C83.65 21.3535 83.0012 21.3108 82.3524 21.3535C81.5739 21.4389 80.7954 21.567 80.0168 21.6951C72.7072 23.2753 67.1709 27.2043 64.3162 34.0802C60.2937 43.6038 64.1864 53.7681 73.0964 58.8929ZM79.2383 37.2832C81.7469 34.5499 85.0773 33.5677 88.4078 34.8489C91.868 36.1728 93.6846 38.8206 94.0738 42.4507C94.1171 42.7497 94.0738 43.0059 94.0738 43.3049C94.1171 48.0027 90.7001 51.9744 86.3317 52.3161C81.7469 52.7004 77.4649 49.0703 77.0324 44.3726C76.8161 41.7674 77.3784 39.3331 79.2383 37.2832Z" fill="white"/>
		<path d="M153.546 60.3022C162.24 63.3344 170.285 62.0105 177.162 55.5618C183.26 49.8817 185.336 40.3581 180.752 32.2437C176.599 24.8981 169.939 21.5243 161.548 21.2253C158.823 21.268 156.228 21.6951 153.719 22.7201C145.89 25.9231 141.089 31.5177 140.181 39.9737C139.316 48.6432 144.895 57.27 153.546 60.3022ZM157.179 35.2759C159.99 33.8239 162.932 33.9947 165.57 35.7884C169.982 38.8206 170.674 44.7569 167.689 48.8568C165.224 52.2306 160.423 53.7681 156.444 50.9921C153.719 49.113 152.292 46.5506 152.335 42.3226C152.378 39.6747 153.978 36.9415 157.179 35.2759Z" fill="white"/>
		<path d="M94.0738 43.3476C94.117 48.0453 90.7001 52.0171 86.3316 52.3588C81.7469 52.7431 77.4649 49.113 77.0756 44.4152C76.8594 41.7674 77.3784 39.3331 79.2382 37.2832C81.7469 34.5499 85.0773 33.5677 88.4077 34.8489C91.8679 36.1728 93.6845 38.8633 94.0738 42.4934C94.117 42.7497 94.0738 43.0486 94.0738 43.3476Z" fill="black"/>
		<path d="M152.292 42.3226C152.378 39.6748 153.978 36.9416 157.136 35.276C159.947 33.824 162.888 33.9948 165.527 35.7885C169.938 38.8207 170.631 44.757 167.646 48.8568C165.181 52.2307 160.38 53.7681 156.4 50.9922C153.676 49.1131 152.248 46.5506 152.292 42.3226Z" fill="black"/>
	</symbol>
	<symbol id="white-cat-outline" viewBox="0 0 98 121" fill="none" xmlns="http://www.w3.org/2000/svg">
		<path d="M109.964 0.611331L101.57 0.720813C100.007 0.793804 98.6262 0.939792 97.2817 0.939792C72.0267 1.04928 46.7717 1.12227 21.5531 1.23176C16.2841 1.26826 11.015 1.34125 5.74602 1.37775C5.67334 1.37775 5.63701 1.37775 5.56433 1.37775C1.02207 1.56023 -0.649482 3.27557 0.222632 7.72812C2.07587 17.1807 6.98152 24.407 16.2114 28.0931C20.6446 29.8449 25.2596 30.7573 29.9835 31.1223C30.8193 31.1953 31.6187 31.3413 32.7089 31.4872C27.9849 50.1369 29.1477 68.677 31.6914 87.2902C29.1114 87.7281 26.5314 88.0566 24.0241 88.6405C12.2142 91.4507 2.65729 102.546 2.58461 115.064C2.58461 118.495 4.21983 120.392 7.63561 120.465C16.8655 120.611 26.0954 120.611 35.2889 120.611C39.5404 120.611 43.7557 120.611 48.0072 120.429C61.9247 119.808 75.8058 119.115 89.7233 118.385C93.5752 118.166 97.427 117.728 101.57 117.4L109.964 116.451L109.964 107.327C77.5501 111.998 44.8095 111.925 11.7781 112.071C12.2505 109.188 13.268 106.889 14.8305 104.772C19.4818 98.6405 25.8773 96.1588 33.363 96.0858C34.9982 96.0858 36.6334 96.1588 38.2686 96.2683C39.9402 96.3778 41.5027 96.1223 42.4475 94.6624C42.8472 94.042 43.0652 92.9471 42.8109 92.3632C40.2672 86.8522 39.2134 81.0128 38.959 75.0274C38.5957 67.3631 38.414 59.7354 38.3776 52.0712C38.3776 49.0055 38.85 45.9033 39.3587 42.8376C40.2309 37.5821 41.321 32.3267 42.3385 27.1077C42.8109 24.6259 41.3937 23.1296 38.4503 22.9471C35.0709 22.7646 31.6551 22.6551 28.312 22.2172C23.5517 21.5967 18.9004 20.6113 14.9396 17.4726C12.7956 15.7573 10.8334 13.0566 9.96124 9.8084L109.927 9.8084L109.927 0.611331L109.964 0.611331Z" fill="black"/>
		<path d="M14.9759 17.4726C18.9004 20.6113 23.5517 21.5967 28.3483 22.2172C31.6914 22.6551 35.1072 22.7646 38.4866 22.9471C41.43 23.1296 42.8835 24.6259 42.3748 27.1077C41.3573 32.3631 40.2672 37.5821 39.3951 42.8376C38.8863 45.9033 38.3776 49.0055 38.4139 52.0712C38.4503 59.7354 38.632 67.3631 38.9954 75.0274C39.2861 81.0128 40.3035 86.8522 42.8472 92.3631C43.1379 92.9836 42.8835 94.0785 42.4838 94.6624C41.539 96.1223 39.9765 96.4142 38.3049 96.2682C36.6697 96.1588 35.0345 96.0858 33.3993 96.0858C25.9136 96.1588 19.5181 98.604 14.8669 104.772C13.268 106.852 12.2505 109.188 11.8145 112.071C44.8458 111.962 77.5864 111.998 110 107.363L110 9.80839L9.99755 9.8084C10.8333 13.0566 12.7956 15.7573 14.9759 17.4726ZM59.3447 86.4142C54.7661 86.4507 50.9142 82.6916 50.8416 78.2026C50.8052 73.6405 54.6934 69.7719 59.3447 69.8084C63.9233 69.8449 67.7388 73.604 67.7388 78.1296C67.7388 82.5821 63.8869 86.3777 59.3447 86.4142ZM82.3467 39.5529C86.7799 40.8303 89.796 44.6989 90.3047 49.8449C90.3774 50.4288 90.4137 51.0493 90.4501 51.7792C95.9371 52.8011 99.3893 55.8668 99.4256 61.7427C99.4619 67.1442 96.1552 69.8084 91.1768 70.7573C91.1042 72.1077 91.1405 73.312 90.9952 74.5164C90.4501 79.3704 87.1797 82.8741 82.7828 83.385C82.1287 83.458 81.3292 83.5675 80.8205 83.2755C80.1301 82.8376 79.2943 82.0712 79.258 81.4142C79.2216 80.7573 80.1301 80.0274 80.6388 79.3704C80.7478 79.2245 81.0749 79.2245 81.3292 79.188C85.3264 78.3485 86.8526 76.4507 86.7073 72.3266C86.5982 69.6989 85.6535 67.3631 83.8366 65.3923C81.838 63.2755 80.3481 63.4215 78.4222 65.6113C77.332 66.8522 76.0965 68.0931 74.7157 69.0055C72.5354 70.4288 70.6458 69.6989 69.9917 67.1442C69.4467 64.8814 69.156 62.4726 69.156 60.1369C69.156 58.1661 69.6647 56.1588 70.0644 54.2245C70.6095 51.7062 73.1895 50.6478 75.2608 52.2536C76.787 53.4215 78.0588 54.9179 79.367 56.3412C81.2202 58.385 82.6011 58.3485 84.1999 56.1588C86.3439 53.2025 86.4892 50.1004 84.9267 46.8887C84.0909 45.2099 82.7101 44.2609 80.9658 43.677C79.1853 43.0931 78.4948 41.8522 79.1126 40.5383C79.7667 39.042 81.0385 39.188 82.3467 39.5529ZM67.7388 41.9252C67.7751 46.4142 63.9596 50.2464 59.381 50.2828C54.7297 50.3558 50.8052 46.4872 50.8416 41.9252C50.8779 37.4361 54.6934 33.6405 59.272 33.6405C63.8506 33.6405 67.7388 37.4361 67.7388 41.9252Z" fill="white"/>
		<path d="M79.0763 40.5383C78.4585 41.8522 79.1489 43.0931 80.9295 43.677C82.7101 44.261 84.0909 45.2099 84.8904 46.8887C86.4892 50.1004 86.3075 53.2391 84.1636 56.1588C82.5647 58.3486 81.1839 58.385 79.3306 56.3413C78.0225 54.9179 76.7506 53.4215 75.2244 52.2537C73.1895 50.6478 70.5732 51.7062 70.0281 54.2245C69.592 56.1953 69.1196 58.1661 69.1196 60.1369C69.1196 62.4726 69.4103 64.8814 69.9554 67.1442C70.5732 69.6989 72.4991 70.3923 74.6794 69.0055C76.0602 68.0931 77.2957 66.8887 78.3858 65.6113C80.3118 63.4215 81.838 63.2756 83.8002 65.3923C85.6171 67.3267 86.5619 69.6624 86.6709 72.3267C86.8526 76.4507 85.2901 78.3486 81.2929 79.188C81.0385 79.2245 80.7478 79.2245 80.6025 79.3704C80.0574 80.0274 79.1853 80.7573 79.2216 81.4142C79.258 82.0712 80.0937 82.8741 80.7842 83.2756C81.2566 83.5675 82.0923 83.458 82.7464 83.385C87.1433 82.8741 90.4137 79.334 90.9588 74.5164C91.1042 73.3121 91.0678 72.1077 91.1405 70.7573C96.0825 69.8084 99.4256 67.1442 99.3893 61.7427C99.3529 55.8668 95.9371 52.8376 90.4137 51.7792C90.3411 51.0128 90.3047 50.4288 90.2684 49.8449C89.7597 44.7354 86.7436 40.8303 82.3104 39.5529C81.0385 39.188 79.7667 39.042 79.0763 40.5383ZM94.2656 58.8595C92.7394 59.1515 91.1042 59.2975 91.1042 61.1588C91.1042 63.3486 92.9938 63.3121 94.8833 63.677C93.6478 65.5383 92.0126 66.1588 90.0867 66.3777C88.7059 64.5894 87.3613 62.8376 85.9442 60.9763C87.0706 59.5164 88.2335 57.9471 89.4326 56.4142C91.6856 56.3413 93.0664 56.9982 94.2656 58.8595Z" fill="black"/>
		<path d="M67.7388 78.1296C67.7388 82.5821 63.8869 86.4142 59.3447 86.4507C54.7661 86.4872 50.9142 82.7281 50.8416 78.239C50.8052 73.677 54.6934 69.8084 59.3447 69.8449C63.9233 69.8084 67.7388 73.604 67.7388 78.1296Z" fill="black"/>
		<path d="M67.7388 41.9252C67.7751 46.4142 63.9596 50.2464 59.381 50.2829C54.7297 50.3559 50.8052 46.4872 50.8416 41.9252C50.8779 37.4361 54.6934 33.6405 59.272 33.6405C63.8506 33.6405 67.7388 37.4361 67.7388 41.9252Z" fill="black"/>
		<path d="M94.2655 58.8595C92.7393 59.1515 91.1041 59.261 91.1041 61.1588C91.1041 63.3851 93.03 63.3121 94.8833 63.677C93.6478 65.5383 92.0125 66.1588 90.0866 66.3777C88.7058 64.5894 87.3613 62.8376 85.9441 60.9763C87.0706 59.5164 88.2334 57.9471 89.4325 56.4142C91.6855 56.3413 93.0664 56.9982 94.2655 58.8595Z" fill="white"/>
	</symbol>
</svg>