<svg style="display:none" xmlns="http://www.w3.org/2000/svg" xmlns:xlink="http://www.w3.org/1999/xlink" version="1.1">
	<symbol id="white-cat" viewBox="0 0 104 101" fill="none" xmlns="http://www.w3.org/2000/svg">
        <path d="M95.4682 5.03716C92.3295 8.96167 91.3441 13.6129 90.7236 18.4096C90.2857 21.7527 90.1762 25.1685 89.9937 28.5479C89.8112 31.4913 88.3149 32.9448 85.8331 32.4361C80.5777 31.4186 75.3587 30.3285 70.1032 29.4564C67.0375 28.9476 63.9353 28.4389 60.8696 28.4752C53.2054 28.5116 45.5777 28.6933 37.9134 29.0566C31.928 29.3473 26.0886 30.3648 20.5777 32.9085C19.9572 33.1992 18.8623 32.9448 18.2784 32.5451C16.8185 31.6003 16.5266 30.0378 16.6725 28.3662C16.782 26.731 16.855 25.0958 16.855 23.4606C16.782 15.9749 14.3368 9.57942 8.1689 4.92814C6.08861 3.32927 3.75284 2.3118 0.869629 1.87574C0.979118 34.9071 0.942622 67.6477 5.57766 100.061L103.132 100.061L103.132 0.0588379C99.8842 0.894614 97.1835 2.85687 95.4682 5.03716ZM26.5266 49.406C26.4901 44.8274 30.2492 40.9755 34.7382 40.9028C39.3003 40.8665 43.1689 44.7547 43.1324 49.406C43.0959 53.9846 39.3368 57.8001 34.8112 57.8001C30.3587 57.8001 26.5631 53.9482 26.5266 49.406ZM73.3879 72.408C72.1105 76.8412 68.2419 79.8573 63.0959 80.366C62.512 80.4387 61.8915 80.475 61.1616 80.5114C60.1397 85.9984 57.074 89.4505 51.1981 89.4869C45.7966 89.5232 43.1324 86.2164 42.1835 81.2381C40.8331 81.1654 39.6288 81.2018 38.4244 81.0564C33.5704 80.5114 30.0667 77.2409 29.5558 72.844C29.4828 72.1899 29.3733 71.3905 29.6652 70.8818C30.1032 70.1913 30.8696 69.3556 31.5266 69.3192C32.1835 69.2829 32.9134 70.1913 33.5704 70.7001C33.7163 70.8091 33.7163 71.1361 33.7528 71.3905C34.5923 75.3877 36.4901 76.9139 40.6142 76.7685C43.2419 76.6595 45.5777 75.7147 47.5485 73.8978C49.6652 71.8992 49.5193 70.4094 47.3295 68.4835C46.0886 67.3933 44.8477 66.1578 43.9353 64.777C42.512 62.5967 43.2419 60.7071 45.7966 60.053C48.0594 59.508 50.4682 59.2172 52.8039 59.2172C54.7747 59.2172 56.782 59.726 58.7163 60.1257C61.2346 60.6708 62.293 63.2508 60.6871 65.322C59.5193 66.8482 58.0229 68.1201 56.5996 69.4282C54.5558 71.2815 54.5923 72.6623 56.782 74.2612C59.7382 76.4052 62.8404 76.5505 66.0521 74.988C67.7309 74.1522 68.6798 72.7714 69.2638 71.0271C69.8477 69.2466 71.0886 68.5561 72.4025 69.1739C73.8988 69.828 73.7528 71.0998 73.3879 72.408ZM71.0156 57.8001C66.5266 57.8364 62.6944 54.0209 62.6579 49.4423C62.585 44.791 66.4536 40.8665 71.0156 40.9028C75.5047 40.9392 79.3003 44.7547 79.3003 49.3333C79.3003 53.9119 75.5047 57.8001 71.0156 57.8001Z" fill="white"/>
	</symbol>
</svg>